<?xml version="1.0" encoding="UTF-8"?>
<svg id="Calque_1" xmlns="http://www.w3.org/2000/svg" version="1.1" viewBox="0 0 1920 1080">
  <!-- Generator: Adobe Illustrator 29.1.0, SVG Export Plug-In . SVG Version: 2.1.0 Build 93)  -->
  <defs>
    <style>
      .st0 {
        stroke: #fff;
        stroke-miterlimit: 10;
        stroke-width: 2px;
      }
    </style>
  </defs>
  <path class="st0" d="M955.8,981.66c6,1.62,6.09-6.76,7.75-11.08,24.78-64.36,35.06-133.91,65.73-195.98,21.84-44.18,30.74-38.34,68.27-62.59,33.94-21.93,63.64-43.16,88.23-75.89,77.75-11.87,164.48-16.27,236.55-49.56,11.25-5.19,21.29-12.24,32.47-17.41-71.71,66.64-165.02,104.91-236.22,172.96l16.05-59.38-1.6-7.13c-4.42,12.07-11.26,25.38-18.2,36.15-19.05,29.55-37.94,31.68-65.92,49.41-29.05,18.42-60.9,43.64-83.38,69.65-2.76,3.2-15.56,18.86-16.59,21.13-.44.96-.56,3.64,1.08,3.29,11.71-11.13,23.83-22.29,36.63-32.12,1.75-1.34,4.25-5.99,6.61-2.26l-82.08,163.01c-4,.53-2.01-4.82-1.64-7.18,2-12.62,7.63-25,8.09-38.05l-19.7-65.64c.38,12.87-.62,25.9,0,38.77.38,7.87,5.2,21.32,4.05,28.31-2.7,16.39-27.35,62.71-34.56,83.18-3.42,9.7-5.99,19.43-8.33,29.4-6.51-18.62-12.26-37.61-19.37-56.07-5.79-15.06-20.94-42.53-23.36-56.49-3.45-19.97,5.13-46.06,1.67-67.11l-19.7,67.86c1.27,12.33,5.75,24.1,7.62,36.29.36,2.33,2.99,7.23-1.18,6.71l-79.85-158.6,3.27-3.27,33.33,28.8c2.85.82,4.37-.44,3.27-3.27-2.26-5.81-27.11-32.04-33.21-37.77-18.94-17.81-46.63-37.31-68.96-50.8-12.52-7.57-41.96-19.35-50.68-26.95-11.26-9.8-25.02-42.55-33.45-56.39l-1.21,6.75,15.67,59.76c-70.5-67.79-163.81-105.61-234-172.96l46.65,23.2c71.5,27.69,148.9,33.44,223.89,46.69,19.97,29.71,47.11,48.55,76.99,67.17,15.95,9.94,41.47,20.21,55.02,31.47,16.42,13.64,37.15,62.73,44.9,83.74,19.28,52.21,30.21,107.91,49.38,160.24Z"/>
  <path class="st0" d="M875.16,410.21c51.52,54.35,59.94,83.55,80.56,153.45.95,3.23-1.28,3.88,4.48,3.25,4.73-35.45,18.29-71.34,36.79-101.84,34.1-56.2,91.03-91.72,124.69-148.11,39.49-66.14,52.16-142.24,19.4-213.72-.57-1.23-8.87-12.3-4.57-10.96,47.37,40.65,92.11,102.24,96.47,166.32-5.26-3.76-6.17-12.71-9.25-18.44-9.82-18.3-23.06-37.5-39.5-50.3,16,50.65,22.9,103.19,1.67,153.62-19.66,46.7-70.47,78.54-103.77,115.8-23.97,26.83-80.53,107.92-84.24,141.99-2.62,24.09,4.85,59.37,2.15,79.67-2.01,15.08-20.43,53.72-26.58,71.12-5.16,14.61-11.15,30.35-13.28,45.52-5.43.67-3.52-.02-4.65-3.1-13.14-36-22.13-73.94-36.95-109.44-3.96-26.68,4.65-55.03,1.44-81.29-4.51-36.88-55.39-110.36-80.68-138.9-36.55-41.25-95.48-77.19-113.72-130.25-16.09-46.82-10.81-98.38,3.88-144.74l-14.42,13.28-34.33,57.68c1.71-32.27,15.38-64.01,31.46-91.6,16.23-27.86,40.01-58.38,66.08-76.95-5.31,13.22-13.42,25-17.79,38.74-20.11,63.14,1.2,143.89,38.19,197.06,22.16,31.85,50.35,54.62,76.44,82.14Z"/>
  <path class="st0" d="M1128.78,615.68c33.56-29.65,64.1-68.28,102.75-91.3,47.95-28.55,105.63-44.87,140.12-92.76,3.33,1.73-.64,5.35-1.49,7.38-9.07,21.49-24.12,39.82-39.55,56.91,86.6-26.98,156.21-94.89,206.24-168.54-14.65,110.01-77.73,210.64-188.02,243.34-47.58,14.11-99.55,13.31-145.22,29.99-11.03,4.03-22.39,12.61-34.33,14.47-13.43,2.1-27.15-1.04-40.49.51Z"/>
  <path class="st0" d="M578.74,495.91c-13.06-16.05-28.21-32.04-35.94-51.65-.85-2.15-3.57-6.79-.67-8.21,14.9,14.77,29.01,30.4,46.53,42.19,47.87,32.21,91.67,41.74,138.71,83.08,19.66,17.28,37.71,37.26,57.63,54.35-10.94-3.86-20.63.6-32.24.1-23.6-1.03-43.23-15.22-65.33-21.17-40.87-11-83.88-11.35-125.91-24.9-109.48-35.3-164.74-139-182.37-246.76l22.56,33.96c46.76,57.35,105.27,115.3,177.03,139Z"/>
  <path class="st0" d="M1261.86,475.95c18.38-19.81,37.86-39.62,50-64.2,14.56-29.46,31.22-89.14,14.85-119.25-1.41-2.6.05-3.74-4.96-2.82-.48,27.92-17.86,58.05-32.74,81.41-1.4,2.21.21,3.96-4.97,2.85-.54-9.02.85-18.51-.25-27.48-1.16-9.48-10.75-31.87-10.27-37.59.58-6.8,14.52-34.02,17.79-44.07,25.39-78.15,20.2-168.21-20.58-240.18-.36-1.64,2.32-1.51,3.28-1.08,4.15,1.87,21.34,22.64,25.47,27.77,48.79,60.39,99.84,170.55,104.28,248.37,1.75,30.62-6.76,39.67-22.58,63.88-29.01,44.4-61.96,77.62-106.65,106.27-3.87,2.48-7.85,6.34-12.7,6.13Z"/>
  <path class="st0" d="M640.84,23.54c-38.77,76.31-44.4,155.15-21.06,237.29,3.17,11.15,16.16,39.83,16.51,47.88.32,7.46-9.23,32.44-10.68,44.45-.84,6.89-.04,13.88-.31,20.77l-27.66-48.82-10.05-39.87-8.32,21.59c-7.83,41.36,11.4,104.01,36.25,137.91l26.41,31.25c-48.6-28.04-87.59-71.08-115.99-119.11-4.48-7.57-14.12-22.67-16.44-30.13-2.34-7.53-.28-28.85.77-37.92,9.04-78.02,60.79-194,113.91-252.05,1.96-2.14,14.27-15.73,16.67-13.25Z"/>
  <path class="st0" d="M902.55,646.75c-30.59-29.05-48.24-82.24-76.54-110.88-26.29-26.61-63.02-33.56-89.67-52.28-8.79-6.18-19-18.16-27.92-25.31-7.35-5.89-43.43-31.88-44.95-37.11-1.44-21.07.94-43.94,5.43-64.62,3.3-15.18,12.96-46.4,20.2-59.61,1.4-2.56-.11-3.77,4.94-2.83-.95,15.62,3.44,31.03,8.83,45.51,27.79,74.67,101.91,108.53,152.01,165.15,11.48,12.98,47.65,60.98,47.65,76.55v65.43Z"/>
  <path class="st0" d="M1015.67,579.1c1.48-9.53,14.63-32.85,20.38-41.72,56.62-87.29,175.47-128.75,185.91-243.27l13.32,29.89c8.99,28.75,18.58,60.58,15.63,91.1-.46,4.78.01,5.93-3.28,10.03-6.34,7.88-38.34,29.31-48.92,37.58-8.4,6.56-17.68,17.47-25.7,23.09-24.26,17-61.02,26.68-83.13,49.94l-74.2,113.22c2.36-21.39-3.19-49.35,0-69.86Z"/>
  <polygon class="st0" points="813.81 872.97 754.75 840.02 600.93 768.76 760.58 785.4 784.56 814.64 813.81 872.97"/>
  <path class="st0" d="M1308.42,768.76l-208.47,104.2c16-31.51,28.36-63.63,54.69-88.34,51.32-4.76,102.78-8.71,153.78-15.86Z"/>
  <path class="st0" d="M1037.82,691.09c-3.93.53-2.18-5.02-1.93-7.46,1.56-14.79,8.53-30.3,13.36-44.32l55.11-85.71c-1.62,10.73-5.86,21.27-6.59,32.19-.54,7.97,2.79,27.04,1.87,30.52-2.74,10.3-60.58,54.71-61.82,74.78Z"/>
  <path class="st0" d="M882.57,691.11c-19.7-26.98-41.13-52.61-65.49-75.5,2.13-21.61,2.6-41.5-5.44-62.01,8.04,6.47,10.38,18.74,15.9,27.33,10.94,17.02,26.03,31.87,36.24,50.26,10.49,18.88,16.57,38.38,18.79,59.93Z"/>
</svg>